<svg version="1" xmlns="http://www.w3.org/2000/svg" width="834.667" height="834.667" viewBox="0 0 626.000000 626.000000"><path d="M288.9.4c-.3.3-3 .8-6 1.1-5.1.5-7.2.8-14.4 2-1.6.3-5 .8-7.5 1.1-2.5.3-7.3 1.1-10.6 1.9-3.4.8-7.3 1.6-8.5 1.9-4.7 1-6.5 1.4-10.9 2.7-2.5.7-5.1 1.4-5.8 1.5-.8.1-2.1.6-3 1-2 .9-2.5 1-8.2 2.5-2.5.7-4.7 1.5-5 1.8-.3.3-1.2.7-2 .9-6.7 1.5-44.3 18.9-49 22.7-.8.6-2.3 1.5-3.3 1.8-2.6 1-29.7 19.2-33.3 22.5-1 1-3.2 2.8-4.9 4-8.4 6.4-38.6 35.2-37 35.2.3 0-.4 1-1.7 2.2C74.9 110 67.6 119 63.2 125c-1.8 2.5-5.3 7.2-7.7 10.5-2.4 3.2-5 7.1-5.7 8.5-.7 1.4-2.3 3.9-3.5 5.6-1.3 1.7-2.3 3.4-2.3 3.8 0 .5-.8 2-1.8 3.4-7.5 10.8-25.4 51.8-28.7 65.7-.1.5-.5 1.7-.8 2.5-2.2 5.5-7.5 30.5-9.3 44-.5 3.9-1.2 8.3-2.2 15-1.6 10.5-.6 60.1 1.3 67 .2.8.7 4 1 7 .4 3 .8 5.7 1 6 .2.3.7 3.3 1 6.5.4 3.3 1.1 6.8 1.6 7.7.6 1 .8 1.8.5 1.8-.4 0 1.5 7.3 5.8 23.5.2.5.6 1.7.9 2.5.3.8 1.1 3.3 1.7 5.5 1.1 4 1.5 4.9 4.3 11.5.8 1.9 1.8 4.6 2.2 6 .7 2.2 3.6 8.7 10.6 23.5C50.3 489 83.3 529.7 117.8 557c7 5.5 13.2 10.5 13.9 11 .7.6 1.7 1 2.3 1 .5 0 1 .4 1 .8 0 .5 1.2 1.5 2.8 2.3 1.5.8 3.6 2.2 4.6 3.1 1.1 1 2.6 1.8 3.3 1.8.7 0 1.3.4 1.3.9s.8 1.1 1.8 1.5c.9.3 2.6 1.1 3.7 1.8 6.9 4.3 9.8 6 16.5 9.5 11.6 6.1 41.1 18.5 47 19.7 1.4.3 5.2 1.5 8.5 2.6 3.2 1.1 6.9 2.2 8.2 2.4 1.2.3 6 1.4 10.5 2.5 8.9 2.2 21.4 4.3 32.8 5.6 1.4.2 2.5.4 2.5.5 0 .8 14.2 1.4 34.5 1.4 22.8-.1 27.8-.3 37-1.7 1.9-.3 5.8-.9 8.5-1.3 30-3.9 61.3-13.7 93.5-29.2 4.1-1.9 7.7-3.8 8-4.1.3-.3 3.4-2.1 7-4 3.6-1.8 7.9-4.4 9.7-5.7 1.7-1.3 3.4-2.4 3.7-2.4.4 0 3.4-1.9 6.7-4.3 3.4-2.3 8.1-5.6 10.4-7.2 14.8-10.3 38.6-32.4 52.4-48.5 8.2-9.8 9-10.7 13.1-16.3 1.9-2.6 5-6.7 6.7-9 1.8-2.3 3.3-4.7 3.3-5.4 0-.6.4-1.3.8-1.5 1.2-.5 10.2-15 10.2-16.4 0-.7.4-1.4.9-1.6 1-.3 11-20.2 15.9-31.3 2.6-6.1 9-23.2 9.7-26 .1-.6.3-1.3.4-1.7.1-.4.8-2.7 1.7-5 3.3-9.4 8.9-34.8 10-45.5.2-2.7.7-5.9.9-7.3 1.6-8 2-14.9 1.9-37 0-22.9-.3-28-1.8-37-.3-1.9-.8-4.9-1-6.5-1.1-8.5-1.9-13.4-2.7-17-.5-2.2-1.2-5.1-1.4-6.5-1.1-6.5-5.3-21.7-6.6-24.2-.5-1-.7-1.8-.5-1.8.5 0-3.3-11.6-5.4-16.5-2.2-5.3-3.5-9.1-3.2-9.8.1-.4-.2-.7-.6-.7-.4 0-1.4-1.7-2.1-3.8-1.9-5.3-14.1-29.6-15.3-30.3-.5-.3-.9-.9-.8-1.3.3-1.1-12.7-21.6-14.4-22.8-.6-.4-.7-.8-.2-.8.5 0-.1-.8-1.2-1.9-1.2-1-2.2-2.2-2.2-2.7 0-.9-1.2-2.4-13.9-17.7-12.5-15-29.8-31.8-46.2-44.7-1.7-1.4-3.7-3-4.3-3.6-1.2-1.1-2.6-2.1-16.7-11.5-10.9-7.2-14.3-9.3-14.9-9.4-.3-.1-3.2-1.6-6.5-3.5s-6.2-3.3-6.4-3.2c-.2.2-.7 0-1-.5-1.4-2.2-38.1-18-38.1-16.5 0 .4-.4.2-.8-.4C416.1 16.7 380 6.7 371 5.5c-2.5-.3-5.6-.7-7-1-3.5-.7-7.7-1.3-13.5-2.1-2.7-.4-6.3-.9-8-1.2-4.4-.7-52.9-1.4-53.6-.8zm51.6 24c3.5.4 8.5 1.1 16 2.2 2.3.3 9.1 1.4 12 1.9 5.1.9 28.2 6.8 29.8 7.7 1 .5 3 1.2 4.4 1.4 5 .9 24.2 8.7 37.8 15.4 11.4 5.6 33.5 18.5 38 22.2.6.5 3.9 3 7.5 5.6 3.5 2.6 7.2 5.4 8.1 6.2 1 .8 3.9 3.3 6.6 5.5 5.5 4.6 29.4 28.4 33.6 33.6 14.1 17.3 27.1 36.6 34.9 51.9 2.3 4.7 4.8 8.8 5.3 9.2.6.4.7.8.3.8-.3 0 .6 2.6 2.2 5.7 9.5 19.8 20.2 55.6 22.5 76 .3 2.7.8 6 1 7.4 2 10.1 2.6 46.4 1.1 61.9-.5 4.7-1 9.7-1.1 11.1-.2 1.5-.5 3.9-.9 5.5-.3 1.6-.8 4.2-1 5.9-1 7-2.2 13.3-2.6 13.7-.2.3-.3.9-1.3 5.8-2.4 10.9-11.9 39.6-15.6 46.7-.5 1-3.7 7.5-7 14.4-5.2 10.6-17.8 32.3-21.2 36.3-.5.6-3.3 4.2-6.1 8.1-2.9 3.8-5.7 7.5-6.3 8.1-.5.6-2.3 2.8-4 4.8-1.6 2.1-5.8 6.8-9.2 10.5-3.4 3.6-6.3 6.9-6.3 7.3 0 .5-.4.8-.8.8-.5 0-3.8 2.8-7.4 6.2-3.6 3.5-8.4 7.9-10.8 9.8-2.3 1.9-4.8 4-5.4 4.5-2.5 2.4-13.5 10.4-19.1 14.1-3.3 2.1-6.2 4.1-6.5 4.4-1.3 1.5-22.7 13.3-32 17.7-11.1 5.3-38.8 16.1-39.7 15.5-.2-.1-2 .5-4.2 1.3-2.2.7-5.5 1.6-7.4 1.9-1.9.3-4.6 1-6.1 1.5-1.4.6-2.6.8-2.6.5 0-.2-.8 0-1.8.5s-5.4 1.4-9.7 2c-8.8 1.3-13 1.9-16 2.6-14 3-62.1 2.4-78.8-.9-.7-.2-3.4-.6-6.2-1-2.7-.4-5.9-.9-7-1.1-10.7-1.7-38.4-10-52.5-15.8-4.7-1.9-10.5-4.3-13-5.3s-4.7-2.1-5-2.5c-.3-.4-3-1.8-6-3.2-7.1-3.3-15.4-8-15.8-9-.2-.4-.8-.7-1.3-.7-2.3 0-23-14.8-38.9-27.6-3.6-2.9-27-26.3-31.5-31.5C87 494.4 77 481.2 77 480.1c0-.6-.9-1.5-2-2.1-1.1-.6-2-1.5-2-1.9 0-.9-11.9-20.3-13.8-22.6-.4-.6-.8-1.2-.8-1.5.1-.9-5.9-12.5-6.7-13.1-.5-.3-.8-.8-.7-1 .2-.5-1.1-3.7-3.6-9.4-1-2.2-1.8-4.2-1.9-4.5-.1-.3-.9-2.3-1.9-4.5-3.8-8.7-9.9-28.2-12.1-38.5-.1-.8-.8-3.3-1.3-5.5-1.6-5.9-2.3-10.2-4.7-27.5-1.5-10.7-2-19.2-1.9-34.5 0-15.4 1-35 1.8-36.4.2-.3.7-3.3 1.1-6.6 2.1-18.8 10.7-49.3 19.9-70.8 4.9-11.3 14.5-30.2 17.7-34.9 1.1-1.4 1.9-2.8 1.9-3.1 0-.6 6.2-10.1 8.6-13.2.8-1.1 3.6-4.9 6.2-8.5 2.6-3.5 5.4-7.2 6.2-8.1.8-.9 3.1-3.6 5-6 3.6-4.5 29-30.2 32.5-32.9 1.1-.8 6.1-4.8 11.2-8.8 5-4.1 9.4-7.2 9.7-7 .2.2 1.6-.7 2.9-2 3-2.8 14.4-10.2 20.7-13.4 2.5-1.3 4.7-2.6 5-2.9.7-.9 24.8-12.3 32.4-15.4 18.1-7.2 46.6-14.8 64.4-17.1 2-.2 4.7-.6 6-.9 1.2-.2 5.7-.7 10-1 4.2-.4 7.8-.8 8-1 .5-.5 41.3.3 45.7.9z"/><path d="M296.9 49.4c-.2.2-4 .6-8.5 1-7.4.5-29.6 4-33.6 5.2-.9.3-2.5.7-3.7.9-8.5 1.6-29.8 8.7-41.6 13.8-35.2 15.2-64.5 36.2-93 66.9-11.3 12.1-32.1 41.7-36.5 52.1-.6 1.2-1.4 2.9-2 3.7-1 1.6-6.6 13.7-9.5 20.5-5 11.8-13.7 41.8-14.9 51.5-.3 2-.8 4.8-1.1 6.2-.7 2.8-.8 3.2-2.1 16.8-1.1 10.2-1 43.2 0 51 .4 3 .9 7.3 1.1 9.5.2 2.2.5 4 .5 4 .2 0 .8 2.6 2.4 11.5.8 4.7 1.9 10.1 2.5 12 .5 1.9 1.7 6.4 2.6 10 .9 3.6 2.4 7.8 3.3 9.5.9 1.6 1.5 3.2 1.4 3.5-.9 2.8 18.8 46 21 46 .4 0 .8.6.8 1.3 0 1.7 11.2 18.5 18.9 28.5 10 13 26.9 30.4 40.1 41.3 10.4 8.5 32.9 23.9 35 23.9.6 0 1 .4 1 .9s1 1.3 2.2 1.6c1.1.4 4.3 2 7 3.6 2.8 1.6 5.9 3.1 7 3.2 1.8.2 2.1-.4 2.3-3.8.1-2.2.5-10.8.9-19 .5-8.3 1-16.7 1.2-18.8.2-2.1.6-9 .9-15.5.3-6.4.7-16.7 1-22.7.3-6.1.8-15.1 1-20 .3-5 .7-13.1 1-18 .2-5 .8-14.4 1.1-21 .4-6.6.8-13.1.9-14.5.3-3.4-1.2-6-3.4-6-1 0-3.6-.8-5.7-1.7-2.2-.9-4.1-1.7-4.4-1.8-1.9-.6-5-1.9-7.9-3.3-1.9-.9-3.9-1.6-4.3-1.5-.4.2-.8-.1-.8-.5 0-.5-2.2-2.3-4.8-4-6.2-4-22.2-20.9-22.2-23.5 0-.6-.6-1.8-1.4-2.6-5.6-6.2-15.8-33.5-18.2-48.8-.3-2.1-.8-4.2-1.1-4.6-.3-.5-.7-8.8-1-18.5-.6-19.4.6-29.4 5.1-43.2 7.2-22.4 22.3-45.2 38-57.5 2.1-1.7 4.6-3.7 5.5-4.5.9-.8 3.3-2.4 5.4-3.5 2-1.1 3.7-2.3 3.7-2.7 0-.5.3-.7.8-.6.4 0 2.5-.7 4.7-1.7s4.6-1.8 5.3-1.8c.6 0 1.2-.4 1.2-.7 0-.4 1.5-1.1 3.3-1.5 1.7-.4 4.1-1 5.2-1.3 1.1-.4 7.6-.6 14.5-.6 11.1 0 13.3.3 19.9 2.7 8.6 3.1 18.8 8.6 25.1 13.6 7.2 5.6 19.2 18.1 23.5 24.6 2.2 3.3 4.3 6.2 4.6 6.5 1.5 1.2 9 17.2 11.7 25 4.5 13.2 6.6 24.9 6.6 38.5 0 13.3-.9 25.2-2.3 30.5-.5 1.9-1.1 5.3-1.4 7.5-.4 3.9-4.3 17-6.8 23-.7 1.6-1.3 3.2-1.4 3.5-.3 1.2-6.8 13.8-8.7 17-5.3 8.7-16.5 20.7-24.6 26.2-5.2 3.6-14.2 7.7-23.5 10.8l-6.9 2.3.7 13.6c.4 7.5.8 16.5 1 20.1.2 3.6.6 11.2.9 17 .3 5.8.8 14.4 1.1 19.2.3 4.8.8 12.2 1 16.5.2 4.3.6 13.9.9 21.3.4 7.4.9 18 1.2 23.5.3 5.5.7 13.6.9 18 .7 14.4 1.7 28 2.1 28.4.3.3 1.1.6 1.8.7.8.1 3.8.7 6.8 1.3 2.9.7 6.9 1.4 8.8 1.7 1.9.3 5.8.9 8.5 1.4 20.2 3.6 47.3 3.5 76.5-.4 10.6-1.5 29.3-5.9 39.3-9.3 4.5-1.6 4.7-1.8 4.8-5.7.1-4.3.3-7.9 1.4-26.6.9-15.4 1.2-21.1 1.9-36.5.4-7.2.8-17.1 1.1-22 .3-5 .7-14.4 1-21 .3-6.6.8-14.5 1-17.5.2-3 .7-11 1-17.7l.6-12.2-2.8-.8c-1.5-.4-3-.8-3.3-.9-.3-.1-1.6-.5-3-.9-8.2-2.6-24.4-12.9-31.5-20-4.5-4.5-10.6-12.7-11.9-16-3.6-9.3-4.1-43.1-1-82.5.3-4.7.7-10.5.9-13 .4-7 1.6-21.2 2-22.9.2-1.5 1-8 2-17.6.3-2.2.7-6.7 1-10 .8-9.7 1.6-16.9 2-18.5.2-.8.7-4.8 1-8.8.4-4 .8-8.1 1-9.2.2-1 .6-4.5 1-7.7.3-3.2.8-8.3 1.1-11.3.3-3 .7-5.6.8-5.8.3-.3 10.7-.5 14.4-.3l2.2.1v177h7.9c6.7 0 7.9-.3 8.3-1.8.2-.9.3-40.7.3-88.5l-.1-86.7 2.8-.1c1.5 0 4.2-.1 5.8-.1 1.7 0 4.5.1 6.3.1l3.2.1v176.5l7.8.3c6.8.3 7.7.1 7.8-1.5 0-1 .1-40.9.2-88.7l.2-86.8h6.8c3.7.1 7.8.1 9.2.1l2.5.1v177h16.5l-.1-88.4v-88.4l5.4-.4c6.5-.4 7.1 0 7.7 4.1.2 1.8.6 4.4.9 5.9.3 1.5.8 5.2 1.1 8.2.3 3 .7 7.1 1 9 .2 1.9.6 6.2.9 9.5.6 7.5 1.5 15.1 2.1 19 .7 4.8 1.9 16.8 3 29.5.4 4.1.8 8.6 1 10 .2 1.4.7 6.1 1.1 10.5.3 4.4.8 9.6.9 11.5.5 5.1 1.5 19.2 2 29 .7 11.4.7 47.9 0 51-.3 1.4-.7 4-1 5.9-.7 5.1-5.1 11.9-12.9 19.6-8.1 7.9-11.9 10.9-18.5 14.5-2.5 1.4-4.7 2.8-4.9 3.2-.2.5-1 .8-1.8.8-.9 0-3.6.9-6.2 1.9-2.6 1.1-5.9 2.2-7.4 2.5-1.5.4-2.6 1.2-2.3 1.9.2.6.7 9.1 1 18.7.4 9.6.9 20.2 1 23.5.7 12.5 1.5 27.3 2 35.5.7 10.1 1.2 19.2 2.1 40 .3 8.5 1 15.9 1.5 16.5.6.5.9.5.9-.2 0-.6.8-1.3 1.8-1.7 1.5-.5 3.8-1.8 6.6-3.9.6-.4 3.8-2.5 7.1-4.7 22.6-15 45.6-37.4 64.5-62.9 3.3-4.5 6-8.4 6-8.8 0-.3 1.1-2 2.4-3.7 1.3-1.7 4.4-6.9 7-11.6 2.6-4.7 5.1-9.2 5.6-10 1.3-2 9-18.9 9-19.6 0-.3.6-2 1.4-3.7 2-4.4 8.7-24.2 9.2-27.5.3-1.5 1.3-5.9 2.4-9.7 1.6-6.2 2.9-12.8 3.5-19 .2-1.1.5-3.4.9-5 1.3-6.5 2-18.8 2.1-36 0-20.5-.6-27.3-3.6-44.5-.5-3-1.1-6.9-1.4-8.5-.7-4-2.4-11-4.1-16.5-4.1-13.6-7.8-24.6-8.6-25.5-.4-.5-.8-1.5-.8-2.2 0-3.8-20.1-42.5-23.6-45.4-.8-.6-1.4-1.5-1.4-2 0-.7-6.7-10-15.2-21.1-2.6-3.5-14.2-16.2-18.9-20.8-10.9-10.8-27.9-25-29.8-25-.5 0-1.1-.4-1.3-.8-.4-1-11.4-9.2-12.3-9.2-.4 0-2.1-1-3.8-2.3-13.9-9.8-52.8-26.9-69-30.2-1-.2-2.7-.7-3.7-1-4.2-1.3-14.3-3.4-19.9-4.1-2.5-.3-4.8-.7-5.1-.9-.3-.2-3.3-.7-6.5-1-3.3-.4-6.9-.9-8-1.2-2.5-.6-42-1.4-42.6-.9z"/><path d="M166.7 234.8c-6 6.8-13.1 24.9-15.3 39.1-.3 1.8-.8 4.3-1.1 5.5-1.1 4.4-.9 19.3.3 25.1 1.3 6.4 4.6 17.1 6.8 22 .8 1.6 1.9 4.1 2.5 5.5 1.8 4 6.8 12.7 8.8 15 11.7 14 28.2 25.3 30.8 21 .6-1-.7-4-2.7-6.2-9.8-10.3-19.7-30.4-26.9-54.8-2.7-8.9-3.1-12.7-3.2-26-.1-16.4.9-25.4 4.2-38 1.3-4.9 1.5-7.1.7-8.1-1.6-2-3.2-2.1-4.9-.1z"/></svg>